<svg version="1.2" xmlns="http://www.w3.org/2000/svg" viewBox="0 0 1080 1080" width="1080" height="1080">
	<title>Proyecto nuevo</title>
	<style>
		.s0 { fill: #231f20 } 
		.s1 { fill: #009ac9 } 
	</style>
	<path id="Layer" fill-rule="evenodd" class="s0" d="m361 981.9v-11.7h47.3v11.7h-16.8v49.9h-14v-49.9zm64.8-11.7v35.5c0 10.6 4 15.9 11.1 15.9 7.1 0 11.4-4.9 11.4-15.9v-35.5h13.8v34.8c0 19-9.6 28-25.7 28-16.1 0-24.8-8.6-24.8-28.2v-34.6zm44.5 1q2.3-0.4 4.6-0.6 2.3-0.3 4.7-0.4 2.3-0.2 4.6-0.3 2.3 0 4.7 0 2.6-0.2 5.2 0 2.6 0.2 5.1 0.8 2.6 0.6 5 1.7 2.4 1 4.5 2.5 1.4 1.1 2.6 2.6 1.1 1.4 1.8 3.1 0.7 1.7 1.1 3.5 0.3 1.8 0.2 3.6-0.1 2.5-0.9 4.8-0.8 2.4-2.2 4.4-1.5 2-3.5 3.4-1.9 1.5-4.3 2.3v0.3q1.7 0.9 3.1 2.1 1.3 1.2 2.4 2.7 1.1 1.5 1.8 3.2 0.7 1.7 1 3.5 0.5 2.2 1 4.4 0.6 2.2 1.2 4.4 0.7 2.2 1.3 4.3 0.7 2.2 1.4 4.3h-14.2q-0.7-1.7-1.4-3.5-0.6-1.7-1.1-3.5-0.6-1.8-1-3.7-0.5-1.8-0.8-3.6c-1.7-7.7-4.3-10-10-10h-4.1v24.3h-13.8zm13.8 26.3h5.4c7 0 11.1-3.4 11.1-8.8 0-5.5-3.8-8.5-10.2-8.6q-0.8 0-1.6 0-0.8 0-1.6 0.1-0.8 0-1.6 0.1-0.8 0.1-1.5 0.2zm36.4-27.3h14v61.6h-14zm22.7 47.3q1.8 0.9 3.6 1.6 1.9 0.7 3.9 1.1 1.9 0.5 3.9 0.8 2 0.3 4 0.3c6.4 0 9.9-2.6 9.9-6.7 0-4-3.1-6-10.4-8.7-10.3-3.5-17-9.2-17-18.1 0-10.6 8.8-18.6 23.3-18.6q2-0.1 4.1 0.1 2 0.2 4 0.6 1.9 0.4 3.9 1 1.9 0.6 3.8 1.4l-3.2 11.2q-1.5-0.7-3-1.2-1.6-0.6-3.2-1-1.7-0.3-3.3-0.5-1.7-0.2-3.3-0.2c-6 0-9 2.7-9 6 0 3.2 3.5 5.6 11.5 8.7 10.8 3.9 15.9 9.7 15.9 18.3 0 10.3-7.9 19.1-24.8 19.1q-2.2 0-4.5-0.2-2.2-0.2-4.4-0.7-2.2-0.5-4.4-1.2-2.1-0.7-4.1-1.7zm97-9.2c-0.3-7.4-0.6-16.4-0.6-25.3h-0.3c-1.9 7.8-4.4 16.6-6.8 23.8l-7.5 24.1h-10.8l-6.5-23.9c-1.9-7.2-4.1-16-5.5-24-0.4 8.3-0.7 17.8-1.1 25.5l-1.1 23.4h-12.9l4-61.6h18.5l6 20.5c1.9 7.2 3.9 14.9 5.3 22.1h0.2c1.7-7.2 3.8-15.3 5.9-22.2l6.5-20.4h18.2l3.4 61.6h-13.6zm77.8-8.1c0 20.2-12.2 32.5-30.2 32.5-18 0-29-13.8-29-31.4 0-18.4 11.8-32.2 29.8-32.2 18.9 0.2 29.2 14.3 29.2 31.3zm-14.9 0.7c0-11.5-6.6-20.8-14.9-20.8-8.2 0-14.9 9.3-14.9 20.8 0 11.4 6.7 20.7 14.9 20.7 8.3 0 14.9-9.3 14.9-20.7z"/>
	<path id="Layer" fill-rule="evenodd" class="s0" d="m343 883.3v-11.7h47.5v11.7h-16.8v50.1h-14.1v-50.1zm65-11.7v35.6c0 10.6 4 16 11.1 16 7.2 0 11.5-5 11.5-16v-35.6h13.9v34.9c0 19.1-9.6 28.1-25.8 28.1-16.2 0-24.9-8.6-24.9-28.3v-34.7zm90.1 60.1q-1.9 0.7-3.9 1.2-1.9 0.6-3.9 0.9-2 0.3-4 0.5-2.1 0.1-4.1 0c-21.4 0-32.4-13.3-32.4-30.9 0-21.1 15-32.8 33.8-32.8q1.9-0.1 3.9 0 1.9 0.2 3.8 0.5 2 0.4 3.8 0.9 1.9 0.6 3.7 1.3l-2.8 11.1q-1.4-0.6-2.9-1-1.4-0.4-2.9-0.7-1.5-0.3-3-0.4-1.5-0.2-3-0.2c-2.7-0.1-5.4 0.3-7.9 1.2-2.5 1-4.8 2.5-6.6 4.5-1.9 1.9-3.3 4.2-4.2 6.7-0.9 2.6-1.2 5.3-1 8-0.2 2.7 0.1 5.3 1.1 7.9 0.9 2.5 2.3 4.8 4.2 6.7 1.9 1.9 4.2 3.3 6.8 4.3 2.5 0.9 5.2 1.2 7.9 1q1.4 0 2.9-0.1 1.5-0.1 3-0.4 1.4-0.2 2.9-0.6 1.4-0.4 2.8-0.9zm19.2-60.1v35.6c0 10.7 4.1 16 11.2 16 7.1 0 11.4-4.9 11.4-16v-35.6h13.9v34.9c0 19.1-9.6 28.2-25.8 28.2-16.1 0-24.9-8.7-24.9-28.4v-34.7zm97 38.2c-0.3-7.4-0.6-16.5-0.6-25.4h-0.3c-1.9 7.8-4.4 16.7-6.8 23.9l-7.6 24.1h-10.9l-6.6-23.9c-2-7.2-4.1-16.1-5.6-24.1-0.5 8.1-0.9 18.1-1.2 25.5l-1.1 23.6h-13l3.9-61.9h18.7l6 20.6c2 7.2 3.9 15 5 22.2h0.8c1.7-7.2 3.8-15.4 5.9-22.3l6.6-20.5h18.2l3.4 61.9h-13.9zm60.9-52.8l-11.2 11.3h-11.2l7.7-11.3zm-25.1 60.4l-4.5 16h-14.5l19-61.9h18.3l19.2 61.9h-15l-4.8-16zm15.6-10.5l-3.8-13.1c-1.1-3.7-2.2-8.3-3.1-12-1 3.7-1.9 8.4-2.9 12l-3.7 13.1zm26.2 26.6v-61.9h16.3l12.9 22.7q1.4 2.5 2.7 5.1 1.4 2.6 2.6 5.3 1.3 2.6 2.4 5.3 1.2 2.7 2.2 5.5h0.3q-0.3-3.3-0.5-6.5-0.3-3.2-0.4-6.4-0.2-3.2-0.2-6.5-0.1-3.2-0.1-6.4v-18.1h12.9v61.9h-14.6l-13.2-23.9q-1.5-2.7-2.9-5.4-1.4-2.7-2.7-5.5-1.3-2.8-2.5-5.6-1.3-2.7-2.4-5.6h-0.3c0.4 8.2 0.5 16.9 0.5 27v18.7z"/>
	<path id="Layer" fill-rule="evenodd" class="s0" d="m230.5 793.1v22h23.3v6.3h-30.8v-60h29.6v6.3h-22.1v19.2h20.7v6.2zm31.7 28.3v-60h7.9l16.8 29.6q1.3 2.4 2.6 4.9 1.3 2.5 2.5 5 1.2 2.5 2.3 5 1.2 2.5 2.3 5.1c-0.5-8.5-0.5-16-0.5-25.6v-24.2h6.9v60h-7.4l-16.9-29.7q-1.3-2.4-2.7-4.9-1.3-2.5-2.5-5-1.3-2.5-2.5-5.1-1.1-2.6-2.2-5.2h-0.3c0.5 7.8 0.6 15.1 0.6 25.8v24.2zm46.5-53.6v-6.4h39.7v6.4h-16.1v53.6h-7.5v-53.6zm53 25.3v22h23.3v6.3h-30.8v-60h29.6v6.3h-22.1v19.3h20.8v6.1zm57.2 9.7l-5.5 18.6h-7.7l18.5-60h8.7l18.3 60h-7.7l-5.7-18.6zm17.4-5.9l-4.8-16.6c-1.2-4-2-8.1-2.9-11.8-0.8 3.8-1.7 7.9-2.8 11.7l-4.8 16.7zm29.9-35.5v36.9c0 12.7 5.2 17.7 12.2 17.7 7.1 0 12.8-5.2 12.8-17.7v-36.9h7.5v36.2c0 17.7-8.7 24.7-20.5 24.7-11.8 0-19.3-6.6-19.3-24.2v-36.8zm38.2 6.4v-6.4h39.7v6.4h-16.2v53.6h-7.4v-53.6zm77-19.8l-11.3 10.1h-6.1l8.2-10.1zm-22.2 54.7l-5.5 18.7h-7.7l18.4-60h8.7l18 60h-7.7l-5.8-18.6zm17.5-5.9l-4.9-16.6c-1.1-4-2.1-8.1-2.8-11.8h-0.3c-0.8 3.8-1.8 7.9-2.9 11.7l-4.8 16.7zm22.2-34.7q1.6-0.3 3.3-0.5 1.7-0.3 3.3-0.4 1.7-0.2 3.4-0.3 1.7 0 3.4 0 2.2-0.2 4.3 0 2.2 0.2 4.3 0.8 2.1 0.7 4 1.7 1.9 1 3.6 2.3 1.1 1.1 2 2.5 0.9 1.3 1.5 2.8 0.6 1.5 0.8 3 0.3 1.6 0.3 3.2 0 2.5-0.7 5-0.8 2.4-2.3 4.5-1.4 2.1-3.5 3.6-2 1.5-4.4 2.3c4.5 1.6 7.2 5.8 8.6 12.6q0.4 2.1 0.8 4.1 0.5 2 1 4 0.5 2.1 1.1 4.1 0.7 1.9 1.4 3.9h-7.7q-0.7-1.8-1.2-3.6-0.6-1.8-1-3.6-0.5-1.8-0.9-3.6-0.4-1.9-0.7-3.7c-1.6-8.3-4.8-11.4-11.3-11.6h-5.9v26.1h-7.5zm7.5 27.4h6.3c1.7 0.2 3.3 0.1 4.8-0.5 1.6-0.5 3-1.3 4.2-2.4 1.2-1.1 2.2-2.4 2.8-3.9 0.7-1.5 1-3.1 1-4.7 0-7.6-4.9-11.2-12.8-11.2q-0.8-0.1-1.6 0-0.8 0-1.6 0-0.8 0.1-1.6 0.2-0.8 0.1-1.5 0.3zm79.8 40.2c-7-2-14.5-4.6-20.2-6.8q-0.4-0.2-0.8-0.3-0.4-0.2-0.8-0.3-0.4-0.1-0.8-0.2-0.4-0.1-0.8-0.1c-13-0.3-23.5-10.7-23.5-30.4 0-19.8 10.3-31.4 24.8-31.4 14.5 0 23.7 12.2 23.7 30.4 0 15.7-6.1 25.3-15 28.5v0.4c5.4 1.5 11.2 2.9 15.7 3.9zm-6.2-38.7c0-11.8-4.8-24.2-16.2-24.2-11.4 0-16.6 12.5-16.6 25 0 12.4 5.5 24.2 16.4 24.2 10.9 0 16.4-11.7 16.4-25zm24-29.7v37c0 12.6 5.2 17.7 12.2 17.7 7.8 0 12.8-5.3 12.8-17.7v-37h7.4v36.3c0 17.6-8.7 24.6-20.5 24.6-11.7 0-19.3-6.6-19.3-24.2v-36.8zm44.1 0h7.5v60h-7.5zm56.6 58.3q-1.7 0.7-3.3 1.2-1.7 0.5-3.4 0.8-1.8 0.3-3.5 0.4-1.7 0.2-3.5 0.1c-15.4 0-26.8-10.3-26.8-30.1 0-19.9 12.5-31.5 28.4-31.5q1.5-0.1 3.1 0.1 1.5 0.1 3.1 0.4 1.5 0.3 3 0.7 1.5 0.5 2.9 1.1l-1.7 6.2q-1.2-0.6-2.5-1-1.3-0.4-2.5-0.7-1.3-0.3-2.7-0.4-1.3-0.1-2.6-0.1c-11.8 0-20.6 8.2-20.6 24.7 0 16.4 8 24.2 20.4 24.2q1.3 0 2.7-0.1 1.4-0.2 2.7-0.4 1.4-0.3 2.7-0.7 1.3-0.4 2.6-1zm53.3-28.8q0 0 0 0 0-0.1 0-0.1zm-24.7 31.3c-13.6 0-23.8-11.7-23.8-30.6 0-18.9 10.3-31.3 24.8-31.3 14.4 0 23.7 12.3 23.7 30.6 0 21-11 31.3-24.7 31.3zm-16-30.6c0 12.7 5.6 24.2 16.5 24.2 10.9 0 16.4-11.8 16.4-24.9 0-11.7-4.9-24.2-16.4-24.2-11.5 0-16.5 12.1-16.5 24.9z"/>
	<path id="Layer" class="s0" d="m790 696.2v12.6h-500v-12.6z"/>
	<path id="Layer" fill-rule="evenodd" class="s0" d="m346.1 519.7q-2.1 0.7-4.2 1.3-2.1 0.5-4.2 0.9-2.2 0.3-4.3 0.5-2.2 0.2-4.4 0.3-2.9 0.1-5.7-0.2-2.9-0.4-5.6-1.4-2.7-0.9-5.2-2.4-2.4-1.5-4.6-3.4-2.1-2.3-3.7-5-1.6-2.7-2.7-5.6-1.1-2.9-1.5-6-0.5-3.1-0.3-6.2c0-20.2 13.3-31.3 30.8-31.3q1.8 0 3.5 0.1 1.8 0.2 3.6 0.5 1.7 0.3 3.4 0.8 1.8 0.5 3.4 1.1l-2.1 8.7q-1.4-0.6-2.8-1-1.4-0.5-2.9-0.7-1.5-0.3-2.9-0.4-1.5-0.2-3-0.1c-11.3 0-19.8 7-19.8 21.9 0 14.9 7.8 21.9 18.4 21.9q0.8 0 1.7 0 0.9-0.1 1.7-0.2 0.9-0.1 1.7-0.3 0.9-0.2 1.7-0.5v-15.6h-9.5v-8.5h19.5zm57.8-28.3c0 20.9-10.9 31.6-25.7 31.6-14.8 0-24.8-13-24.8-30.8 0-17.7 10.1-31.2 25.7-31.2 15.5 0 24.7 13.4 24.8 30.4zm-11 0.6c0-12.4-6.4-22.4-14.3-22.4-7.8 0-14.2 10-14.2 22.4 0 12.3 6.4 22.3 14.2 22.3 7.9 0 14.3-10 14.3-22.3zm19.8-29.3q1.8-0.3 3.6-0.6 1.9-0.2 3.7-0.4 1.9-0.1 3.7-0.2 1.9-0.1 3.7-0.1 2.2-0.2 4.3 0 2.2 0.2 4.3 0.7 2.1 0.5 4 1.3 2 0.8 3.9 2 1.3 0.9 2.4 2.1 1.1 1.3 1.8 2.7 0.7 1.5 1.1 3.1 0.3 1.6 0.3 3.3 0 2.1-0.7 4.2-0.7 2-2 3.8-1.3 1.7-3 3-1.7 1.3-3.8 2c1.7 0.3 3.3 1 4.7 1.9 1.5 0.9 2.8 2.1 3.8 3.4 1.1 1.3 1.9 2.8 2.5 4.5 0.5 1.6 0.8 3.3 0.8 5q0.1 1.8-0.3 3.5-0.3 1.8-1 3.4-0.7 1.6-1.7 3.1-1 1.4-2.3 2.6c-4.1 3.7-10.8 5.6-21.2 5.6q-1.6 0-3.1 0-1.6-0.1-3.1-0.2-1.6-0.1-3.1-0.2-1.6-0.1-3.1-0.3zm15.2 23.9c6.8 0 11-3.7 11-8.9 0-5.3-3.7-8.4-10.4-8.4q-0.7 0-1.4 0-0.7 0-1.3 0.1-0.7 0-1.4 0.1-0.7 0.1-1.3 0.2v16.9zm-4.8 27.7q0.6 0.1 1.3 0.1 0.6 0.1 1.2 0.2 0.6 0 1.2 0 0.7 0 1.3 0c6.7 0 12.4-2.9 12.4-10.2 0-7.3-5.8-10.1-12.7-10.1h-4.8v20zm37.5-52.4h10.5v60.1h-10.5zm32.9 33.3v18h22.6v8.9h-33.1v-60.2h31.9v8.9h-21.4v15.8h20.2v8.6zm31.5-32.5q1.9-0.3 3.7-0.5 1.9-0.3 3.8-0.4 1.9-0.2 3.8-0.3 1.9 0 3.8 0 2.3-0.3 4.6-0.1 2.3 0.2 4.6 0.8 2.2 0.6 4.3 1.6 2.1 1 4 2.4 1.2 1.1 2.2 2.5 1 1.4 1.6 3 0.7 1.5 1 3.2 0.3 1.6 0.2 3.3 0 2.5-0.7 4.9-0.7 2.4-2.1 4.4-1.4 2-3.3 3.6-2 1.5-4.3 2.3 1.7 0.9 3.1 2.1 1.4 1.3 2.5 2.8 1 1.6 1.7 3.4 0.6 1.8 0.8 3.7 0.4 2.1 0.9 4.2 0.5 2.1 1 4.2 0.6 2.1 1.2 4.2 0.7 2.1 1.4 4.1h-10.8q-0.6-1.7-1.2-3.5-0.5-1.7-1-3.5-0.5-1.8-0.9-3.6-0.3-1.8-0.7-3.6c-1.6-7.7-4.2-10.3-10.1-10.4h-4.7v24.6h-10.4zm10.5 26.7h5.3c1.4 0.2 2.8 0.1 4.2-0.3 1.3-0.5 2.6-1.2 3.7-2.1 1-0.9 1.9-2.1 2.5-3.4 0.6-1.2 0.9-2.6 0.9-4.1 0-6.4-3.9-9.7-10.9-9.8q-0.7 0-1.4 0-0.7 0.1-1.5 0.1-0.7 0.1-1.4 0.2-0.7 0.1-1.4 0.3zm36.7 32.7v-60.2h11.5l13.9 25.8q1.4 2.4 2.6 4.8 1.3 2.5 2.5 4.9 1.1 2.5 2.3 5 1.1 2.6 2.1 5.1c-0.6-8-1-16.1-1-25.8v-19.8h9.5v60.2h-10.6l-14.2-26.3q-1.4-2.4-2.6-4.9-1.3-2.5-2.5-5-1.1-2.6-2.3-5.2-1.1-2.5-2.1-5.1c0.4 7.5 0.6 15.6 0.6 26.3v20.2zm102.8-30.7c0 20.8-10.9 31.5-25.7 31.5-14.9 0-24.9-12.9-24.9-30.7 0-17.8 10.2-31.2 25.8-31.2 15.5 0 24.8 13.4 24.8 30.4zm-11.1 0.5c0-12.3-6.3-22.3-14.2-22.3-7.8 0-14.2 10-14.2 22.3 0 12.4 6.4 22.4 14.2 22.4 7.9 0 14.2-10 14.2-22.4zm36.8-29.2q1.9-0.4 3.9-0.6 1.9-0.2 3.8-0.4 2-0.2 3.9-0.2 2-0.1 3.9-0.1 2.9-0.2 5.8 0.1 2.9 0.3 5.7 1.1 2.8 0.8 5.4 2.1 2.6 1.3 4.9 3.1 2.4 2.1 4.2 4.7 1.8 2.7 3 5.6 1.2 3 1.7 6.2 0.4 3.1 0.2 6.3 0.2 3.3-0.3 6.7-0.4 3.3-1.6 6.4-1.1 3.2-2.9 6-1.8 2.9-4.2 5.3-2.5 2-5.4 3.6-2.9 1.5-6 2.5-3.1 0.9-6.4 1.3-3.2 0.4-6.5 0.2-1.6 0-3.3-0.1-1.6 0-3.3-0.1-1.6-0.1-3.2-0.3-1.6-0.1-3.3-0.3zm10.6 51.2q0.6 0.1 1.2 0.1 0.7 0.1 1.3 0.1 0.6 0.1 1.2 0.1 0.7 0 1.3 0c11.9 0 19.7-7.2 19.7-23.4 0-13.4-6.5-21.1-18.7-21.1q-0.7 0-1.5 0-0.7 0-1.5 0.1-0.8 0.1-1.5 0.2-0.8 0.1-1.5 0.3zm55.1-18.8v18.1h22.5v8.8h-33.1v-60.2h31.9v8.9h-21.3v15.8h20.1v8.6zm-467.4 89.2v-15.8h55.2v15.8h-18.3v54.7h-18.9v-54.7zm81.6-15.8v40c0 10.7 3.6 16.7 11 16.7 7.5 0 11.3-5.5 11.3-16.7v-40h18.9v38.8c0 21.8-10.8 32.8-30.6 32.8-19.8 0-29.5-10.6-29.5-33.2v-38.4zm105.6 68.7q-2.1 0.8-4.2 1.4-2.2 0.6-4.5 0.9-2.2 0.4-4.4 0.6-2.3 0.1-4.6 0c-26.3 0-37.8-16.4-37.8-35.3 0-24.8 18.2-37.5 39.2-37.5q2.3-0.1 4.5 0.1 2.2 0.1 4.5 0.5 2.2 0.4 4.3 1 2.2 0.7 4.3 1.5l-3.7 14.9q-1.5-0.6-3.1-1.1-1.6-0.5-3.3-0.8-1.6-0.3-3.3-0.5-1.7-0.1-3.3-0.1c-2.8-0.2-5.6 0.2-8.2 1.2-2.5 0.9-4.9 2.5-6.8 4.5-1.9 2-3.4 4.3-4.3 7-0.9 2.6-1.2 5.4-1 8.1-0.2 2.8 0.1 5.6 1 8.3 0.9 2.6 2.4 5 4.4 7 2 2 4.4 3.5 7 4.5 2.6 0.9 5.5 1.3 8.2 1q1.6 0 3.2-0.1 1.6-0.1 3.2-0.3 1.6-0.3 3.2-0.7 1.5-0.3 3-0.8zm28-68.8v40.1c0 10.7 3.6 16.6 11.1 16.6 7.4 0 11.1-5.4 11.1-16.6v-40.1h18.9v38.9c0 21.8-10.8 32.7-30.6 32.7-19.8 0-29.5-10.5-29.5-33.1v-38.5zm112.7 45.3c-0.3-8-0.4-17.5-0.4-28.4h-0.1c-2.2 9.5-5.2 19.9-7.5 27.7l-7 24.5h-14.7l-5.9-24.4c-1.9-7.7-4-18.1-5.6-27.8h-0.2c-0.5 9.9-0.8 20.4-1.1 28.4l-1.1 25.3h-17.4l4.4-70.6h25.4l4.8 19c2 7.8 4 17.3 5.5 25.8h0.3c2-8.5 4.3-18.5 6.4-25.9l5.3-18.9h24.8l3.6 70.5h-18.3zm48.1 8.8l-4 16.3h-19.6l20.5-70.5h25.2l21 70.5h-20.4l-4.5-16.3zm29-71.1l-12.6 13.2h-15l8.5-13.2zm-13.4 57.2l-3.3-12.6c-1-4-2.4-9.9-3.5-13.9-1.1 4-2.1 9.9-3.1 13.9l-3 12.6zm35.2 30.3v-70.5h22.2l11.2 21.6q1.6 3 3.1 6.1 1.5 3 2.9 6.1 1.3 3.1 2.6 6.2 1.3 3.1 2.5 6.3h0.3q-0.4-3.7-0.7-7.4-0.3-3.7-0.4-7.4-0.2-3.7-0.3-7.5-0.1-3.7-0.1-7.4v-16.6h17.3v70.5h-19.9l-12-23.4q-1.6-3.1-3.2-6.3-1.5-3.1-3-6.3-1.5-3.2-2.9-6.4-1.4-3.2-2.7-6.5h-0.4c0.5 9.5 0.7 20.1 0.7 31.6v17.3z"/>
	<path id="Layer" class="s1" d="m501.1 172.3l-121.7-23.8-19.4 49.1 141.1-25.3zm70 90.8l115.6 45.3 27-45-142.6-0.3zm77-186.9l-41.9-31.7-14.7 143.8 56.6-112.1zm-129.1 84.8l-104.8-66.6-36.3 38.9 141.1 27.7zm21-3.9l-74-100.7-48.4 23.6 90.2 56.7 32.2 20.4zm20.7 3.8l-32.9-121.1-52.4 4.2 62.7 86.1 22.6 30.8zm129.6-36.5l-27.9-44.5-64.8 128.5 92.7-84zm-94.3 105l116.2-44.7-10-51.3-106.2 96zm-101.5 20.2l-34.6 119.7 47.3 22.7-12.7-142.4zm122.7-12.8l-30.5 11.7 124.2 0.4 9.1-51.2-102.8 39.1zm25.4 118.3l41.6-32.4-132.9-51.8 91.3 84.2zm-57.7 27.8l49.8-14.8-104.6-97.1 54.8 111.9zm-11.9 9.1l-62.7-128.4 10.7 124.2 52 4.2zm-163.4-62.2l35.3 38.1 40-137.1-75.3 99zm73-119.9l-105.6 64.8 19.3 48.8 86.3-113.6zm5.5-20.5l-121.6 22v52.8l121.6-74.8zm103.4-142.7l-51.1-14.7 38.2 139.8 12.9-125.1z"/>
</svg>