<?xml version="1.0" encoding="iso-8859-1"?>
<!-- Uploaded to: SVG Repo, www.svgrepo.com, Generator: SVG Repo Mixer Tools -->
<svg height="800px" width="800px" version="1.1" id="Layer_1" xmlns="http://www.w3.org/2000/svg" xmlns:xlink="http://www.w3.org/1999/xlink" 
	 viewBox="0 0 512 512" xml:space="preserve">
<path style="fill:#1D1D1F;" d="M367.652,497.079c-11.406,0-22.004-7.289-25.684-18.732l-85.969-267.335l-85.969,267.336
	c-4.563,14.189-19.766,21.989-33.951,17.428c-14.189-4.562-21.992-19.763-17.428-33.951L230.31,114.602
	c3.588-11.158,13.969-18.724,25.69-18.724c11.721,0,22.102,7.566,25.69,18.724L393.35,461.825
	c4.562,14.189-3.241,29.389-17.428,33.951C373.173,496.66,370.39,497.079,367.652,497.079z"/>
<path style="fill:#3E3E42;" d="M230.309,114.602L118.651,461.825c-4.562,14.189,3.241,29.389,17.428,33.951
	c14.185,4.56,29.388-3.241,33.951-17.428l85.969-267.336V95.877C244.279,95.877,233.897,103.444,230.309,114.602z"/>
<path style="fill:#4EA3D9;" d="M442.74,64.574H69.26c-8.943,0-16.191,7.249-16.191,16.191v240.07
	c0,8.943,7.249,16.191,16.191,16.191h373.481c8.943,0,16.191-7.249,16.191-16.191V80.766
	C458.931,71.823,451.683,64.574,442.74,64.574z"/>
<path style="fill:#6CB3E0;" d="M255.999,64.574H69.26c-8.943,0-16.191,7.249-16.191,16.191v240.07
	c0,8.943,7.249,16.191,16.191,16.191h186.739V64.574z"/>
<path style="fill:#1D1D1F;" d="M495.809,14.921H16.191C7.249,14.921,0,22.17,0,31.112v49.653c0,8.943,7.249,16.191,16.191,16.191
	h479.617c8.943,0,16.191-7.249,16.191-16.191V31.112C512,22.17,504.75,14.921,495.809,14.921z"/>
<path style="fill:#A6E7ED;" d="M242.226,272.435H132.819c-9.351,0-16.93-7.58-16.93-16.93V146.097c0-9.35,7.58-16.93,16.93-16.93
	h109.408c9.351,0,16.93,7.58,16.93,16.93v109.408C259.158,264.854,251.577,272.435,242.226,272.435z"/>
<path style="fill:#FF9800;" d="M396.111,216.992h-88.513c-8.943,0-16.191-7.249-16.191-16.191c0-8.943,7.249-16.191,16.191-16.191
	h88.513c8.943,0,16.191,7.249,16.191,16.191C412.303,209.743,405.053,216.992,396.111,216.992z"/>
<path style="fill:#89E5ED;" d="M396.111,273.121h-88.513c-8.943,0-16.191-7.249-16.191-16.191c0-8.943,7.249-16.191,16.191-16.191
	h88.513c8.943,0,16.191,7.249,16.191,16.191C412.303,265.873,405.053,273.121,396.111,273.121z"/>
<path style="fill:#00558A;" d="M396.111,161.942h-88.513c-8.943,0-16.191-7.249-16.191-16.191c0-8.943,7.249-16.191,16.191-16.191
	h88.513c8.943,0,16.191,7.249,16.191,16.191C412.303,154.693,405.053,161.942,396.111,161.942z"/>
<path style="fill:#3E3E42;" d="M255.999,14.921H16.191C7.249,14.921,0,22.17,0,31.112v49.653c0,8.943,7.249,16.191,16.191,16.191
	h239.808V14.921z"/>
<path style="fill:#0065A3;" d="M351.855,129.559h-44.256c-8.943,0-16.191,7.249-16.191,16.192c0,8.943,7.249,16.191,16.191,16.191
	h44.256V129.559z"/>
<path style="fill:#F7DC4D;" d="M351.855,184.61h-44.256c-8.943,0-16.191,7.249-16.191,16.191s7.249,16.191,16.191,16.191h44.256
	V184.61z"/>
<path style="fill:#B9E9ED;" d="M351.855,240.74h-44.256c-8.943,0-16.191,7.249-16.191,16.191c0,8.943,7.249,16.191,16.191,16.191
	h44.256V240.74z"/>
<path style="fill:#FFFFFF;" d="M187.523,129.166h-55.235c-9.057,0-16.4,7.342-16.4,16.4v110.469c0,9.057,7.342,16.4,16.4,16.4
	h55.235V129.166z"/>
</svg>